<svg width="592pt" height="404pt" viewBox="0.00 0.00 591.50 404.00" xmlns="http://www.w3.org/2000/svg" xmlns:xlink="http://www.w3.org/1999/xlink">
<g id="graph0" class="graph" transform="scale(1 1) rotate(0) translate(4 400)">
<title>%3</title>
<polygon fill="#ffffff" stroke="transparent" points="-4,4 -4,-400 587.5,-400 587.5,4 -4,4"></polygon>
<!-- n0 -->
<g id="node1" class="node">
<title>n0</title>
<text text-anchor="middle" x="215.5" y="-374.3" font-family="Times,serif" font-size="14.00" fill="#000000">τ</text>
</g>
<!-- n1 -->
<g id="node2" class="node">
<title>n1</title>
<text text-anchor="middle" x="179.5" y="-302.3" font-family="Times,serif" font-size="14.00" fill="#000000">b . id</text>
</g>
<!-- n0&#45;&#45;n1 -->
<g id="edge12" class="edge">
<title>n0--n1</title>
<path fill="none" stroke="#000000" stroke-dasharray="5,2" d="M206.4157,-359.8314C201,-349 194.1438,-335.2876 188.7066,-324.4133"></path>
</g>
<!-- n2 -->
<g id="node3" class="node">
<title>n2</title>
<text text-anchor="middle" x="251.5" y="-302.3" font-family="Times,serif" font-size="14.00" fill="#000000">π</text>
</g>
<!-- n0&#45;&#45;n2 -->
<g id="edge13" class="edge">
<title>n0--n2</title>
<path fill="none" stroke="#000000" d="M224.5843,-359.8314C230,-349 236.8562,-335.2876 242.2934,-324.4133"></path>
</g>
<!-- n3 -->
<g id="node4" class="node">
<title>n3</title>
<text text-anchor="middle" x="152.5" y="-230.3" font-family="Times,serif" font-size="14.00" fill="#000000">b . id, b . title, b . publish_year, a . fname, a . lname</text>
</g>
<!-- n2&#45;&#45;n3 -->
<g id="edge10" class="edge">
<title>n2--n3</title>
<path fill="none" stroke="#000000" stroke-dasharray="5,2" d="M226.5181,-287.8314C211.5105,-276.9167 192.4801,-263.0764 177.4739,-252.1628"></path>
</g>
<!-- n4 -->
<g id="node5" class="node">
<title>n4</title>
<text text-anchor="middle" x="350.5" y="-230.3" font-family="Times,serif" font-size="14.00" fill="#000000">σ</text>
</g>
<!-- n2&#45;&#45;n4 -->
<g id="edge11" class="edge">
<title>n2--n4</title>
<path fill="none" stroke="#000000" d="M276.4819,-287.8314C291.4895,-276.9167 310.5199,-263.0764 325.5261,-252.1628"></path>
</g>
<!-- n5 -->
<g id="node6" class="node">
<title>n5</title>
<text text-anchor="middle" x="291.5" y="-158.3" font-family="Times,serif" font-size="14.00" fill="#000000">b . publish_year &gt; 1830</text>
</g>
<!-- n4&#45;&#45;n5 -->
<g id="edge8" class="edge">
<title>n4--n5</title>
<path fill="none" stroke="#000000" stroke-dasharray="5,2" d="M335.6118,-215.8314C326.7361,-205 315.4995,-191.2876 306.5886,-180.4133"></path>
</g>
<!-- n6 -->
<g id="node7" class="node">
<title>n6</title>
<text text-anchor="start" x="402.5" y="-158.3" font-family="Times,serif" font-size="14.00" fill="#000000">°⋈</text>
</g>
<!-- n4&#45;&#45;n6 -->
<g id="edge9" class="edge">
<title>n4--n6</title>
<path fill="none" stroke="#000000" d="M365.6405,-215.8314C374.6666,-205 386.0937,-191.2876 395.1556,-180.4133"></path>
</g>
<!-- n7 -->
<g id="node8" class="node">
<title>n7</title>
<text text-anchor="middle" x="300.5" y="-86.3" font-family="Times,serif" font-size="14.00" fill="#000000">ρ</text>
</g>
<!-- n6&#45;&#45;n7 -->
<g id="edge3" class="edge">
<title>n6--n7</title>
<path fill="none" stroke="#000000" d="M383.309,-144.2022C366.3857,-133.1252 344.6956,-118.928 327.7594,-107.8425"></path>
</g>
<!-- n10 -->
<g id="node11" class="node">
<title>n10</title>
<text text-anchor="middle" x="410.5" y="-86.3" font-family="Times,serif" font-size="14.00" fill="#000000">b . author_id = a . id</text>
</g>
<!-- n6&#45;&#45;n10 -->
<g id="edge4" class="edge">
<title>n6--n10</title>
<path fill="none" stroke="#000000" stroke-dasharray="5,2" d="M410.5,-143.8314C410.5,-133 410.5,-119.2876 410.5,-108.4133"></path>
</g>
<!-- n11 -->
<g id="node12" class="node">
<title>n11</title>
<text text-anchor="middle" x="520.5" y="-86.3" font-family="Times,serif" font-size="14.00" fill="#000000">ρ</text>
</g>
<!-- n6&#45;&#45;n11 -->
<g id="edge7" class="edge">
<title>n6--n11</title>
<path fill="none" stroke="#000000" d="M437.691,-144.2022C454.6143,-133.1252 476.3044,-118.928 493.2406,-107.8425"></path>
</g>
<!-- n8 -->
<g id="node9" class="node">
<title>n8</title>
<text text-anchor="middle" x="264.5" y="-14.3" font-family="Times,serif" font-size="14.00" fill="#000000">b</text>
</g>
<!-- n7&#45;&#45;n8 -->
<g id="edge1" class="edge">
<title>n7--n8</title>
<path fill="none" stroke="#000000" stroke-dasharray="5,2" d="M291.4157,-71.8314C286,-61 279.1438,-47.2876 273.7066,-36.4133"></path>
</g>
<!-- n9 -->
<g id="node10" class="node">
<title>n9</title>
<text text-anchor="middle" x="336.5" y="-14.3" font-family="Times,serif" font-size="14.00" fill="#000000">book</text>
</g>
<!-- n7&#45;&#45;n9 -->
<g id="edge2" class="edge">
<title>n7--n9</title>
<path fill="none" stroke="#000000" d="M309.5843,-71.8314C315,-61 321.8562,-47.2876 327.2934,-36.4133"></path>
</g>
<!-- n12 -->
<g id="node13" class="node">
<title>n12</title>
<text text-anchor="middle" x="484.5" y="-14.3" font-family="Times,serif" font-size="14.00" fill="#000000">a</text>
</g>
<!-- n11&#45;&#45;n12 -->
<g id="edge5" class="edge">
<title>n11--n12</title>
<path fill="none" stroke="#000000" stroke-dasharray="5,2" d="M511.4157,-71.8314C506,-61 499.1438,-47.2876 493.7066,-36.4133"></path>
</g>
<!-- n13 -->
<g id="node14" class="node">
<title>n13</title>
<text text-anchor="middle" x="556.5" y="-14.3" font-family="Times,serif" font-size="14.00" fill="#000000">author</text>
</g>
<!-- n11&#45;&#45;n13 -->
<g id="edge6" class="edge">
<title>n11--n13</title>
<path fill="none" stroke="#000000" d="M529.5843,-71.8314C535,-61 541.8562,-47.2876 547.2934,-36.4133"></path>
</g>
</g>
</svg>